<svg xmlns="http://www.w3.org/2000/svg" width="800" height="600" viewBox="0 0 800 600" role="img" aria-label="Chaotic continuous line sketch in electric yellow on black">
  <rect width="800" height="600" fill="#1a1a1a"/>
  <g fill="none" stroke="#ffe135" stroke-width="3" stroke-linecap="round" opacity="0.9">
    <path d="M60 480 C 140 200, 260 200, 300 360 S 460 520, 520 320 S 700 120, 760 300"/>
    <path d="M90 520 C 200 360, 320 420, 360 300 S 520 180, 600 360"/>
    <path d="M120 160 q60 -40 120 10 t120 0 t120 -10"/>
  </g>
  <!-- half-drawn face -->
  <g fill="none" stroke="#f5f5f5" stroke-width="4" stroke-linecap="round" opacity="0.85">
    <path d="M300 200 q70 -90 150 -30"/>
    <path d="M310 260 q40 30 100 18"/>
    <path d="M330 180 l2 130"/>
    <circle cx="372" cy="232" r="8" fill="#ffe135" stroke="none"/>
  </g>
  <g stroke="#e0301e" stroke-width="3" fill="none" stroke-linecap="round" opacity="0.7">
    <path d="M520 440 q40 0 40 30 t-40 30 t40 30"/>
  </g>
  <text x="40" y="70" font-family="'Arial Narrow', sans-serif" font-size="34" font-weight="bold" letter-spacing="4" fill="#ffe135" opacity="0.5">SKETCH. AGAIN.</text>
</svg>
