<svg xmlns="http://www.w3.org/2000/svg" width="800" height="420" viewBox="0 0 800 420" role="img" aria-label="Sticker sheet of unfinished line drawings">
  <rect width="800" height="420" fill="#2b2e77"/>
  <g fill="none" stroke="#ffe135" stroke-width="4" stroke-linecap="round">
    <circle cx="160" cy="150" r="80" stroke="#e39b82" stroke-width="2" opacity="0.3"/>
    <path d="M120 170 q40 -70 90 -20 M130 120 l0 70"/>
    <rect x="320" y="80" width="150" height="150" rx="12" stroke="#e39b82" stroke-width="2" opacity="0.3"/>
    <path d="M350 200 l40 -70 l40 70 M350 160 l80 0"/>
    <circle cx="620" cy="150" r="80" stroke="#e39b82" stroke-width="2" opacity="0.3"/>
    <path d="M580 150 q40 0 40 30 t-40 30 M600 110 q40 20 0 60"/>
    <rect x="120" y="280" width="150" height="110" rx="12" stroke="#e39b82" stroke-width="2" opacity="0.3"/>
    <path d="M150 360 l40 -50 l30 30"/>
    <circle cx="430" cy="330" r="60" stroke="#e39b82" stroke-width="2" opacity="0.3"/>
    <path d="M405 330 h50 M430 305 v50"/>
    <rect x="560" y="290" width="150" height="100" rx="12" stroke="#e39b82" stroke-width="2" opacity="0.3"/>
    <path d="M585 345 q35 -30 70 0 t70 0" stroke="#e23b2e"/>
  </g>
</svg>
