<svg xmlns="http://www.w3.org/2000/svg" width="1600" height="520" viewBox="0 0 1600 520" preserveAspectRatio="xMidYMid slice" role="img" aria-label="Four-panel collage: the Sketcher, the Philosopher, the Documentarian, the Editor">
  <!-- Panel 1: Sketcher -->
  <g>
    <rect x="0" y="0" width="400" height="520" fill="#1a1a1a"/>
    <g fill="none" stroke="#ffe135" stroke-width="3" stroke-linecap="round" opacity="0.9">
      <path d="M40 420 C 120 160, 220 220, 260 360 S 380 460, 380 240"/>
      <path d="M60 200 q60 -40 120 10 t120 0"/>
    </g>
    <g fill="none" stroke="#f5f5f5" stroke-width="3" opacity="0.7">
      <path d="M150 250 q60 -70 120 -20 M170 230 l0 90"/>
      <circle cx="206" cy="276" r="7" fill="#ffe135" stroke="none"/>
    </g>
  </g>
  <!-- Panel 2: Philosopher -->
  <g>
    <rect x="400" y="0" width="400" height="520" fill="#2c2c2c"/>
    <circle cx="560" cy="260" r="130" fill="none" stroke="#808080" stroke-width="2"/>
    <circle cx="660" cy="260" r="130" fill="none" stroke="#808080" stroke-width="2"/>
    <circle cx="560" cy="260" r="130" fill="#f5f5f5" opacity="0.05"/>
    <circle cx="560" cy="260" r="5" fill="#ffe135"/>
    <circle cx="660" cy="260" r="5" fill="#f5f5f5"/>
  </g>
  <!-- Panel 3: Documentarian -->
  <g>
    <rect x="800" y="0" width="400" height="520" fill="#0f0f0f"/>
    <g transform="rotate(-6 1000 260)">
      <rect x="860" y="300" width="70" height="220" fill="#1c1c1c"/>
      <rect x="940" y="220" width="90" height="300" fill="#161616"/>
      <rect x="1040" y="280" width="70" height="240" fill="#1c1c1c"/>
      <rect x="1120" y="200" width="60" height="320" fill="#121212"/>
      <g fill="#e8e8e8" opacity="0.85"><rect x="955" y="250" width="12" height="12"/><rect x="985" y="250" width="12" height="12"/><rect x="955" y="285" width="12" height="12"/></g>
      <rect x="985" y="285" width="12" height="12" fill="#e0301e"/>
    </g>
    <g fill="none" stroke="#e0301e" stroke-width="3"><path d="M830 70 h44 M830 70 v44"/><path d="M1170 70 h-44 M1170 70 v44"/></g>
  </g>
  <!-- Panel 4: Editor -->
  <g>
    <rect x="1200" y="0" width="400" height="520" fill="#3d3d3d"/>
    <g>
      <rect x="1250" y="170" width="280" height="22" fill="#4a4a4a"/>
      <line x1="1240" y1="181" x2="1540" y2="181" stroke="#e0301e" stroke-width="3"/>
      <rect x="1250" y="230" width="220" height="22" fill="#2d5f2e"/>
      <rect x="1250" y="290" width="300" height="22" fill="#4a4a4a"/>
      <line x1="1240" y1="301" x2="1560" y2="301" stroke="#e0301e" stroke-width="3"/>
    </g>
    <text x="1250" y="370" font-family="'Arial Narrow', sans-serif" font-size="26" font-weight="bold" letter-spacing="2" fill="#2d5f2e">KEEP ONE.</text>
  </g>
  <!-- seams -->
  <g stroke="#141312" stroke-width="2">
    <line x1="400" y1="0" x2="400" y2="520"/><line x1="800" y1="0" x2="800" y2="520"/><line x1="1200" y1="0" x2="1200" y2="520"/>
  </g>
</svg>
