<svg xmlns="http://www.w3.org/2000/svg" width="1600" height="520" viewBox="0 0 1600 520" preserveAspectRatio="xMidYMid slice" role="img" aria-label="Four-panel collage: the Sketcher, the Philosopher, the Documentarian, the Editor">
  <!-- Panel 1: Sketcher (indigo + yellow) -->
  <g>
    <rect x="0" y="0" width="400" height="520" fill="#2b2e77"/>
    <g fill="none" stroke="#ffe135" stroke-width="3" stroke-linecap="round" opacity="0.9">
      <path d="M40 420 C 120 160, 220 220, 260 360 S 380 460, 380 240"/>
      <path d="M60 200 q60 -40 120 10 t120 0"/>
    </g>
    <g fill="none" stroke="#e39b82" stroke-width="3" opacity="0.85">
      <path d="M150 250 q60 -70 120 -20 M170 230 l0 90"/>
      <circle cx="206" cy="276" r="7" fill="#ffe135" stroke="none"/>
    </g>
  </g>
  <!-- Panel 2: Philosopher (teal + vermilion) -->
  <g>
    <rect x="400" y="0" width="400" height="520" fill="#1e4e5f"/>
    <circle cx="560" cy="260" r="130" fill="none" stroke="#e39b82" stroke-width="2"/>
    <circle cx="660" cy="260" r="130" fill="none" stroke="#e39b82" stroke-width="2"/>
    <circle cx="560" cy="260" r="130" fill="#eae3d2" opacity="0.06"/>
    <circle cx="560" cy="260" r="6" fill="#ffe135"/>
    <circle cx="660" cy="260" r="6" fill="#e23b2e"/>
  </g>
  <!-- Panel 3: Documentarian (mono) -->
  <g>
    <rect x="800" y="0" width="400" height="520" fill="#141210"/>
    <g transform="rotate(-6 1000 260)">
      <rect x="860" y="300" width="70" height="220" fill="#242220"/>
      <rect x="940" y="220" width="90" height="300" fill="#1b1917"/>
      <rect x="1040" y="280" width="70" height="240" fill="#242220"/>
      <rect x="1120" y="200" width="60" height="320" fill="#161412"/>
      <g fill="#eae3d2" opacity="0.85"><rect x="955" y="250" width="12" height="12"/><rect x="985" y="250" width="12" height="12"/><rect x="955" y="285" width="12" height="12"/></g>
      <rect x="985" y="285" width="12" height="12" fill="#e23b2e"/>
    </g>
    <g fill="none" stroke="#e23b2e" stroke-width="3"><path d="M830 70 h44 M830 70 v44"/><path d="M1170 70 h-44 M1170 70 v44"/></g>
  </g>
  <!-- Panel 4: Editor (umber + magenta) -->
  <g>
    <rect x="1200" y="0" width="400" height="520" fill="#3b2a22"/>
    <g>
      <rect x="1250" y="170" width="280" height="22" fill="#5a463c"/>
      <line x1="1240" y1="181" x2="1540" y2="181" stroke="#e23b2e" stroke-width="3"/>
      <rect x="1250" y="230" width="220" height="22" fill="#e84c92"/>
      <rect x="1250" y="290" width="300" height="22" fill="#5a463c"/>
      <line x1="1240" y1="301" x2="1560" y2="301" stroke="#e23b2e" stroke-width="3"/>
    </g>
    <text x="1250" y="370" font-family="'Arial Narrow', sans-serif" font-size="26" font-weight="bold" letter-spacing="2" fill="#e84c92">KEEP ONE.</text>
  </g>
  <!-- seams -->
  <g stroke="#eae3d2" stroke-width="2" opacity="0.5">
    <line x1="400" y1="0" x2="400" y2="520"/><line x1="800" y1="0" x2="800" y2="520"/><line x1="1200" y1="0" x2="1200" y2="520"/>
  </g>
</svg>
